<mxfile host="app.diagrams.net" modified="2021-05-20T11:36:36.447Z" agent="5.0 (Windows)" etag="Qdl9YvrnQtOe048COlI0" version="14.1.2" type="github" pages="2">
  <diagram name="Page-1" id="13e1069c-82ec-6db2-03f1-153e76fe0fe0">
    <mxGraphModel dx="1414" dy="757" grid="1" gridSize="10" guides="1" tooltips="1" connect="1" arrows="1" fold="1" page="1" pageScale="1" pageWidth="1100" pageHeight="850" background="#ffffff" math="0" shadow="0">
      <root>
        <mxCell id="0" />
        <mxCell id="1" parent="0" />
        <mxCell id="7baba1c4bc27f4b0-2" value=":Object" style="shape=umlLifeline;perimeter=lifelinePerimeter;whiteSpace=wrap;html=1;container=1;collapsible=0;recursiveResize=0;outlineConnect=0;rounded=1;shadow=0;comic=0;labelBackgroundColor=none;strokeWidth=1;fontFamily=Verdana;fontSize=12;align=center;" parent="1" vertex="1">
          <mxGeometry x="240" y="80" width="100" height="580" as="geometry" />
        </mxCell>
        <mxCell id="7baba1c4bc27f4b0-10" value="" style="html=1;points=[];perimeter=orthogonalPerimeter;rounded=0;shadow=0;comic=0;labelBackgroundColor=none;strokeWidth=1;fontFamily=Verdana;fontSize=12;align=center;" parent="7baba1c4bc27f4b0-2" vertex="1">
          <mxGeometry x="45" y="100" width="10" height="230" as="geometry" />
        </mxCell>
        <mxCell id="7baba1c4bc27f4b0-3" value=":Object" style="shape=umlLifeline;perimeter=lifelinePerimeter;whiteSpace=wrap;html=1;container=1;collapsible=0;recursiveResize=0;outlineConnect=0;rounded=1;shadow=0;comic=0;labelBackgroundColor=none;strokeWidth=1;fontFamily=Verdana;fontSize=12;align=center;" parent="1" vertex="1">
          <mxGeometry x="400" y="80" width="100" height="580" as="geometry" />
        </mxCell>
        <mxCell id="7baba1c4bc27f4b0-13" value="" style="html=1;points=[];perimeter=orthogonalPerimeter;rounded=0;shadow=0;comic=0;labelBackgroundColor=none;strokeWidth=1;fontFamily=Verdana;fontSize=12;align=center;" parent="7baba1c4bc27f4b0-3" vertex="1">
          <mxGeometry x="45" y="120" width="10" height="200" as="geometry" />
        </mxCell>
        <mxCell id="7baba1c4bc27f4b0-4" value=":Object" style="shape=umlLifeline;perimeter=lifelinePerimeter;whiteSpace=wrap;html=1;container=1;collapsible=0;recursiveResize=0;outlineConnect=0;rounded=1;shadow=0;comic=0;labelBackgroundColor=none;strokeWidth=1;fontFamily=Verdana;fontSize=12;align=center;" parent="1" vertex="1">
          <mxGeometry x="540" y="80" width="100" height="580" as="geometry" />
        </mxCell>
        <mxCell id="7baba1c4bc27f4b0-5" value=":Object" style="shape=umlLifeline;perimeter=lifelinePerimeter;whiteSpace=wrap;html=1;container=1;collapsible=0;recursiveResize=0;outlineConnect=0;rounded=1;shadow=0;comic=0;labelBackgroundColor=none;strokeWidth=1;fontFamily=Verdana;fontSize=12;align=center;" parent="1" vertex="1">
          <mxGeometry x="680" y="80" width="100" height="580" as="geometry" />
        </mxCell>
        <mxCell id="7baba1c4bc27f4b0-6" value=":Object" style="shape=umlLifeline;perimeter=lifelinePerimeter;whiteSpace=wrap;html=1;container=1;collapsible=0;recursiveResize=0;outlineConnect=0;rounded=1;shadow=0;comic=0;labelBackgroundColor=none;strokeWidth=1;fontFamily=Verdana;fontSize=12;align=center;" parent="1" vertex="1">
          <mxGeometry x="820" y="80" width="100" height="580" as="geometry" />
        </mxCell>
        <mxCell id="7baba1c4bc27f4b0-7" value=":Object" style="shape=umlLifeline;perimeter=lifelinePerimeter;whiteSpace=wrap;html=1;container=1;collapsible=0;recursiveResize=0;outlineConnect=0;rounded=1;shadow=0;comic=0;labelBackgroundColor=none;strokeWidth=1;fontFamily=Verdana;fontSize=12;align=center;" parent="1" vertex="1">
          <mxGeometry x="960" y="80" width="100" height="580" as="geometry" />
        </mxCell>
        <mxCell id="7baba1c4bc27f4b0-8" value=":Object" style="shape=umlLifeline;perimeter=lifelinePerimeter;whiteSpace=wrap;html=1;container=1;collapsible=0;recursiveResize=0;outlineConnect=0;rounded=1;shadow=0;comic=0;labelBackgroundColor=none;strokeWidth=1;fontFamily=Verdana;fontSize=12;align=center;" parent="1" vertex="1">
          <mxGeometry x="100" y="80" width="100" height="580" as="geometry" />
        </mxCell>
        <mxCell id="7baba1c4bc27f4b0-9" value="" style="html=1;points=[];perimeter=orthogonalPerimeter;rounded=0;shadow=0;comic=0;labelBackgroundColor=none;strokeWidth=1;fontFamily=Verdana;fontSize=12;align=center;" parent="7baba1c4bc27f4b0-8" vertex="1">
          <mxGeometry x="45" y="100" width="10" height="440" as="geometry" />
        </mxCell>
        <mxCell id="7baba1c4bc27f4b0-16" value="" style="html=1;points=[];perimeter=orthogonalPerimeter;rounded=0;shadow=0;comic=0;labelBackgroundColor=none;strokeWidth=1;fontFamily=Verdana;fontSize=12;align=center;" parent="1" vertex="1">
          <mxGeometry x="585" y="220" width="10" height="180" as="geometry" />
        </mxCell>
        <mxCell id="7baba1c4bc27f4b0-17" value="dispatch" style="html=1;verticalAlign=bottom;endArrow=block;labelBackgroundColor=none;fontFamily=Verdana;fontSize=12;edgeStyle=elbowEdgeStyle;elbow=vertical;" parent="1" source="7baba1c4bc27f4b0-13" target="7baba1c4bc27f4b0-16" edge="1">
          <mxGeometry relative="1" as="geometry">
            <mxPoint x="510" y="220" as="sourcePoint" />
            <Array as="points">
              <mxPoint x="460" y="220" />
            </Array>
          </mxGeometry>
        </mxCell>
        <mxCell id="7baba1c4bc27f4b0-19" value="" style="html=1;points=[];perimeter=orthogonalPerimeter;rounded=0;shadow=0;comic=0;labelBackgroundColor=none;strokeWidth=1;fontFamily=Verdana;fontSize=12;align=center;" parent="1" vertex="1">
          <mxGeometry x="725" y="230" width="10" height="40" as="geometry" />
        </mxCell>
        <mxCell id="7baba1c4bc27f4b0-20" value="dispatch" style="html=1;verticalAlign=bottom;endArrow=block;entryX=0;entryY=0;labelBackgroundColor=none;fontFamily=Verdana;fontSize=12;edgeStyle=elbowEdgeStyle;elbow=vertical;" parent="1" source="7baba1c4bc27f4b0-16" target="7baba1c4bc27f4b0-19" edge="1">
          <mxGeometry relative="1" as="geometry">
            <mxPoint x="650" y="230" as="sourcePoint" />
          </mxGeometry>
        </mxCell>
        <mxCell id="7baba1c4bc27f4b0-21" value="return" style="html=1;verticalAlign=bottom;endArrow=open;dashed=1;endSize=8;labelBackgroundColor=none;fontFamily=Verdana;fontSize=12;edgeStyle=elbowEdgeStyle;elbow=vertical;" parent="1" source="7baba1c4bc27f4b0-19" target="7baba1c4bc27f4b0-16" edge="1">
          <mxGeometry relative="1" as="geometry">
            <mxPoint x="650" y="306" as="targetPoint" />
            <Array as="points">
              <mxPoint x="670" y="260" />
              <mxPoint x="700" y="260" />
            </Array>
          </mxGeometry>
        </mxCell>
        <mxCell id="7baba1c4bc27f4b0-22" value="" style="html=1;points=[];perimeter=orthogonalPerimeter;rounded=0;shadow=0;comic=0;labelBackgroundColor=none;strokeWidth=1;fontFamily=Verdana;fontSize=12;align=center;" parent="1" vertex="1">
          <mxGeometry x="585" y="440" width="10" height="140" as="geometry" />
        </mxCell>
        <mxCell id="7baba1c4bc27f4b0-23" value="dispatch" style="html=1;verticalAlign=bottom;endArrow=block;entryX=0;entryY=0;labelBackgroundColor=none;fontFamily=Verdana;fontSize=12;" parent="1" source="7baba1c4bc27f4b0-9" target="7baba1c4bc27f4b0-22" edge="1">
          <mxGeometry relative="1" as="geometry">
            <mxPoint x="510" y="420" as="sourcePoint" />
          </mxGeometry>
        </mxCell>
        <mxCell id="7baba1c4bc27f4b0-25" value="" style="html=1;points=[];perimeter=orthogonalPerimeter;rounded=0;shadow=0;comic=0;labelBackgroundColor=none;strokeColor=#000000;strokeWidth=1;fillColor=#FFFFFF;fontFamily=Verdana;fontSize=12;fontColor=#000000;align=center;" parent="1" vertex="1">
          <mxGeometry x="1005" y="460" width="10" height="30" as="geometry" />
        </mxCell>
        <mxCell id="7baba1c4bc27f4b0-26" value="dispatch" style="html=1;verticalAlign=bottom;endArrow=block;entryX=0;entryY=0;labelBackgroundColor=none;fontFamily=Verdana;fontSize=12;" parent="1" source="7baba1c4bc27f4b0-22" target="7baba1c4bc27f4b0-25" edge="1">
          <mxGeometry relative="1" as="geometry">
            <mxPoint x="930" y="340" as="sourcePoint" />
          </mxGeometry>
        </mxCell>
        <mxCell id="7baba1c4bc27f4b0-27" value="return" style="html=1;verticalAlign=bottom;endArrow=open;dashed=1;endSize=8;exitX=0;exitY=0.95;labelBackgroundColor=none;fontFamily=Verdana;fontSize=12;" parent="1" source="7baba1c4bc27f4b0-25" target="7baba1c4bc27f4b0-22" edge="1">
          <mxGeometry relative="1" as="geometry">
            <mxPoint x="930" y="416" as="targetPoint" />
          </mxGeometry>
        </mxCell>
        <mxCell id="7baba1c4bc27f4b0-28" value="" style="html=1;points=[];perimeter=orthogonalPerimeter;rounded=0;shadow=0;comic=0;labelBackgroundColor=none;strokeWidth=1;fontFamily=Verdana;fontSize=12;align=center;" parent="1" vertex="1">
          <mxGeometry x="870" y="550" width="10" height="60" as="geometry" />
        </mxCell>
        <mxCell id="7baba1c4bc27f4b0-29" value="dispatch" style="html=1;verticalAlign=bottom;endArrow=block;entryX=0;entryY=0;labelBackgroundColor=none;fontFamily=Verdana;fontSize=12;edgeStyle=elbowEdgeStyle;elbow=vertical;" parent="1" source="7baba1c4bc27f4b0-37" target="7baba1c4bc27f4b0-28" edge="1">
          <mxGeometry relative="1" as="geometry">
            <mxPoint x="800" y="550" as="sourcePoint" />
          </mxGeometry>
        </mxCell>
        <mxCell id="7baba1c4bc27f4b0-30" value="return" style="html=1;verticalAlign=bottom;endArrow=open;dashed=1;endSize=8;labelBackgroundColor=none;fontFamily=Verdana;fontSize=12;edgeStyle=elbowEdgeStyle;elbow=vertical;" parent="1" source="7baba1c4bc27f4b0-28" target="7baba1c4bc27f4b0-9" edge="1">
          <mxGeometry relative="1" as="geometry">
            <mxPoint x="800" y="626" as="targetPoint" />
            <Array as="points">
              <mxPoint x="570" y="600" />
            </Array>
          </mxGeometry>
        </mxCell>
        <mxCell id="7baba1c4bc27f4b0-11" value="dispatch" style="html=1;verticalAlign=bottom;endArrow=block;entryX=0;entryY=0;labelBackgroundColor=none;fontFamily=Verdana;fontSize=12;edgeStyle=elbowEdgeStyle;elbow=vertical;" parent="1" source="7baba1c4bc27f4b0-9" target="7baba1c4bc27f4b0-10" edge="1">
          <mxGeometry relative="1" as="geometry">
            <mxPoint x="220" y="190" as="sourcePoint" />
          </mxGeometry>
        </mxCell>
        <mxCell id="7baba1c4bc27f4b0-14" value="dispatch" style="html=1;verticalAlign=bottom;endArrow=block;entryX=0;entryY=0;labelBackgroundColor=none;fontFamily=Verdana;fontSize=12;edgeStyle=elbowEdgeStyle;elbow=vertical;" parent="1" source="7baba1c4bc27f4b0-10" target="7baba1c4bc27f4b0-13" edge="1">
          <mxGeometry relative="1" as="geometry">
            <mxPoint x="370" y="200" as="sourcePoint" />
          </mxGeometry>
        </mxCell>
        <mxCell id="7baba1c4bc27f4b0-34" value="" style="html=1;points=[];perimeter=orthogonalPerimeter;rounded=0;shadow=0;comic=0;labelBackgroundColor=none;strokeWidth=1;fontFamily=Verdana;fontSize=12;align=center;" parent="1" vertex="1">
          <mxGeometry x="590" y="300" width="10" height="70" as="geometry" />
        </mxCell>
        <mxCell id="7baba1c4bc27f4b0-35" value="dispatch" style="html=1;verticalAlign=bottom;endArrow=block;labelBackgroundColor=none;fontFamily=Verdana;fontSize=12;elbow=vertical;edgeStyle=orthogonalEdgeStyle;curved=1;entryX=1;entryY=0.286;entryPerimeter=0;exitX=1.038;exitY=0.345;exitPerimeter=0;" parent="1" source="7baba1c4bc27f4b0-16" target="7baba1c4bc27f4b0-34" edge="1">
          <mxGeometry relative="1" as="geometry">
            <mxPoint x="465" y="230" as="sourcePoint" />
            <mxPoint x="595" y="230" as="targetPoint" />
            <Array as="points">
              <mxPoint x="650" y="282" />
              <mxPoint x="650" y="320" />
            </Array>
          </mxGeometry>
        </mxCell>
        <mxCell id="7baba1c4bc27f4b0-36" value="dispatch" style="html=1;verticalAlign=bottom;endArrow=block;labelBackgroundColor=none;fontFamily=Verdana;fontSize=12;elbow=vertical;edgeStyle=orthogonalEdgeStyle;curved=1;exitX=1.066;exitY=0.713;exitPerimeter=0;" parent="1" source="7baba1c4bc27f4b0-34" edge="1">
          <mxGeometry relative="1" as="geometry">
            <mxPoint x="610.3333333333333" y="350" as="sourcePoint" />
            <mxPoint x="595" y="389" as="targetPoint" />
            <Array as="points">
              <mxPoint x="650" y="350" />
              <mxPoint x="650" y="389" />
            </Array>
          </mxGeometry>
        </mxCell>
        <mxCell id="7baba1c4bc27f4b0-37" value="" style="html=1;points=[];perimeter=orthogonalPerimeter;rounded=0;shadow=0;comic=0;labelBackgroundColor=none;strokeWidth=1;fontFamily=Verdana;fontSize=12;align=center;" parent="1" vertex="1">
          <mxGeometry x="590" y="520" width="10" height="40" as="geometry" />
        </mxCell>
        <mxCell id="7baba1c4bc27f4b0-39" value="dispatch" style="html=1;verticalAlign=bottom;endArrow=block;labelBackgroundColor=none;fontFamily=Verdana;fontSize=12;elbow=vertical;edgeStyle=orthogonalEdgeStyle;curved=1;entryX=1;entryY=0.286;entryPerimeter=0;exitX=1.038;exitY=0.345;exitPerimeter=0;" parent="1" edge="1">
          <mxGeometry relative="1" as="geometry">
            <mxPoint x="595.3333333333335" y="501" as="sourcePoint" />
            <mxPoint x="600.3333333333335" y="539.3333333333334" as="targetPoint" />
            <Array as="points">
              <mxPoint x="650" y="501" />
              <mxPoint x="650" y="539" />
            </Array>
          </mxGeometry>
        </mxCell>
        <mxCell id="7baba1c4bc27f4b0-40" value="Note" style="shape=note;whiteSpace=wrap;html=1;size=14;verticalAlign=top;align=left;spacingTop=-6;rounded=0;shadow=0;comic=0;labelBackgroundColor=none;strokeWidth=1;fontFamily=Verdana;fontSize=12" parent="1" vertex="1">
          <mxGeometry x="100" y="30" width="100" height="35" as="geometry" />
        </mxCell>
        <mxCell id="7baba1c4bc27f4b0-41" value="Note" style="shape=note;whiteSpace=wrap;html=1;size=14;verticalAlign=top;align=left;spacingTop=-6;rounded=0;shadow=0;comic=0;labelBackgroundColor=none;strokeWidth=1;fontFamily=Verdana;fontSize=12" parent="1" vertex="1">
          <mxGeometry x="240" y="30" width="100" height="35" as="geometry" />
        </mxCell>
        <mxCell id="7baba1c4bc27f4b0-42" value="Note" style="shape=note;whiteSpace=wrap;html=1;size=14;verticalAlign=top;align=left;spacingTop=-6;rounded=0;shadow=0;comic=0;labelBackgroundColor=none;strokeWidth=1;fontFamily=Verdana;fontSize=12" parent="1" vertex="1">
          <mxGeometry x="400" y="30" width="100" height="35" as="geometry" />
        </mxCell>
        <mxCell id="7baba1c4bc27f4b0-43" value="Note" style="shape=note;whiteSpace=wrap;html=1;size=14;verticalAlign=top;align=left;spacingTop=-6;rounded=0;shadow=0;comic=0;labelBackgroundColor=none;strokeWidth=1;fontFamily=Verdana;fontSize=12" parent="1" vertex="1">
          <mxGeometry x="540" y="30" width="100" height="35" as="geometry" />
        </mxCell>
        <mxCell id="7baba1c4bc27f4b0-44" value="Note" style="shape=note;whiteSpace=wrap;html=1;size=14;verticalAlign=top;align=left;spacingTop=-6;rounded=0;shadow=0;comic=0;labelBackgroundColor=none;strokeWidth=1;fontFamily=Verdana;fontSize=12" parent="1" vertex="1">
          <mxGeometry x="680" y="30" width="100" height="35" as="geometry" />
        </mxCell>
        <mxCell id="7baba1c4bc27f4b0-45" value="Note" style="shape=note;whiteSpace=wrap;html=1;size=14;verticalAlign=top;align=left;spacingTop=-6;rounded=0;shadow=0;comic=0;labelBackgroundColor=none;strokeWidth=1;fontFamily=Verdana;fontSize=12" parent="1" vertex="1">
          <mxGeometry x="820" y="30" width="100" height="35" as="geometry" />
        </mxCell>
        <mxCell id="7baba1c4bc27f4b0-46" value="Note" style="shape=note;whiteSpace=wrap;html=1;size=14;verticalAlign=top;align=left;spacingTop=-6;rounded=0;shadow=0;comic=0;labelBackgroundColor=none;strokeWidth=1;fontFamily=Verdana;fontSize=12" parent="1" vertex="1">
          <mxGeometry x="960" y="30" width="100" height="35" as="geometry" />
        </mxCell>
      </root>
    </mxGraphModel>
  </diagram>
  <diagram id="UsAbYHsqh4hKpbZrY05F" name="Page-2">
    <mxGraphModel dx="2358" dy="1262" grid="1" gridSize="10" guides="1" tooltips="1" connect="1" arrows="1" fold="1" page="1" pageScale="1" pageWidth="827" pageHeight="1169" math="0" shadow="0">
      <root>
        <mxCell id="VP1vcT7HGM7R_kZCo5PE-0" />
        <mxCell id="VP1vcT7HGM7R_kZCo5PE-1" parent="VP1vcT7HGM7R_kZCo5PE-0" />
        <mxCell id="VP1vcT7HGM7R_kZCo5PE-3" value="" style="rounded=0;whiteSpace=wrap;html=1;dashed=1;" vertex="1" parent="VP1vcT7HGM7R_kZCo5PE-1">
          <mxGeometry x="200" y="20" width="1650" height="140" as="geometry" />
        </mxCell>
        <mxCell id="VP1vcT7HGM7R_kZCo5PE-4" value="分期乐APP" style="rounded=0;whiteSpace=wrap;html=1;" vertex="1" parent="VP1vcT7HGM7R_kZCo5PE-1">
          <mxGeometry x="260" y="60" width="120" height="60" as="geometry" />
        </mxCell>
        <mxCell id="VP1vcT7HGM7R_kZCo5PE-5" value="乐卡APP" style="rounded=0;whiteSpace=wrap;html=1;" vertex="1" parent="VP1vcT7HGM7R_kZCo5PE-1">
          <mxGeometry x="560" y="60" width="120" height="60" as="geometry" />
        </mxCell>
        <mxCell id="VP1vcT7HGM7R_kZCo5PE-6" value="乐花卡APP" style="rounded=0;whiteSpace=wrap;html=1;" vertex="1" parent="VP1vcT7HGM7R_kZCo5PE-1">
          <mxGeometry x="900" y="60" width="120" height="60" as="geometry" />
        </mxCell>
        <mxCell id="VP1vcT7HGM7R_kZCo5PE-7" value="乐信财富" style="rounded=0;whiteSpace=wrap;html=1;" vertex="1" parent="VP1vcT7HGM7R_kZCo5PE-1">
          <mxGeometry x="1281" y="60" width="120" height="60" as="geometry" />
        </mxCell>
        <mxCell id="VP1vcT7HGM7R_kZCo5PE-8" value="桔子理财" style="rounded=0;whiteSpace=wrap;html=1;" vertex="1" parent="VP1vcT7HGM7R_kZCo5PE-1">
          <mxGeometry x="1654" y="60" width="120" height="60" as="geometry" />
        </mxCell>
        <mxCell id="VP1vcT7HGM7R_kZCo5PE-9" value="&lt;font style=&quot;font-size: 20px&quot;&gt;用户交互端&lt;/font&gt;" style="text;html=1;strokeColor=none;fillColor=none;align=center;verticalAlign=middle;whiteSpace=wrap;rounded=0;" vertex="1" parent="VP1vcT7HGM7R_kZCo5PE-1">
          <mxGeometry x="840" y="30" width="160" height="20" as="geometry" />
        </mxCell>
        <mxCell id="VP1vcT7HGM7R_kZCo5PE-10" value="" style="rounded=0;whiteSpace=wrap;html=1;dashed=1;" vertex="1" parent="VP1vcT7HGM7R_kZCo5PE-1">
          <mxGeometry x="200" y="170" width="210" height="170" as="geometry" />
        </mxCell>
        <mxCell id="VP1vcT7HGM7R_kZCo5PE-11" value="异业合作" style="rounded=0;whiteSpace=wrap;html=1;" vertex="1" parent="VP1vcT7HGM7R_kZCo5PE-1">
          <mxGeometry x="210" y="200" width="90" height="30" as="geometry" />
        </mxCell>
        <mxCell id="VP1vcT7HGM7R_kZCo5PE-12" value="新人专区" style="rounded=0;whiteSpace=wrap;html=1;" vertex="1" parent="VP1vcT7HGM7R_kZCo5PE-1">
          <mxGeometry x="310" y="200" width="90" height="30" as="geometry" />
        </mxCell>
        <mxCell id="VP1vcT7HGM7R_kZCo5PE-13" value="&lt;font style=&quot;font-size: 15px&quot;&gt;获客&lt;/font&gt;" style="text;html=1;strokeColor=none;fillColor=none;align=center;verticalAlign=middle;whiteSpace=wrap;rounded=0;" vertex="1" parent="VP1vcT7HGM7R_kZCo5PE-1">
          <mxGeometry x="285" y="170" width="40" height="20" as="geometry" />
        </mxCell>
        <mxCell id="VP1vcT7HGM7R_kZCo5PE-14" value="出表" style="rounded=0;whiteSpace=wrap;html=1;" vertex="1" parent="VP1vcT7HGM7R_kZCo5PE-1">
          <mxGeometry x="210" y="250" width="90" height="30" as="geometry" />
        </mxCell>
        <mxCell id="VP1vcT7HGM7R_kZCo5PE-15" value="借得到" style="rounded=0;whiteSpace=wrap;html=1;" vertex="1" parent="VP1vcT7HGM7R_kZCo5PE-1">
          <mxGeometry x="210" y="300" width="90" height="30" as="geometry" />
        </mxCell>
        <mxCell id="VP1vcT7HGM7R_kZCo5PE-16" value="同业导流" style="rounded=0;whiteSpace=wrap;html=1;" vertex="1" parent="VP1vcT7HGM7R_kZCo5PE-1">
          <mxGeometry x="310" y="250" width="90" height="30" as="geometry" />
        </mxCell>
        <mxCell id="VP1vcT7HGM7R_kZCo5PE-17" value="广告投放" style="rounded=0;whiteSpace=wrap;html=1;" vertex="1" parent="VP1vcT7HGM7R_kZCo5PE-1">
          <mxGeometry x="310" y="300" width="90" height="30" as="geometry" />
        </mxCell>
        <mxCell id="VP1vcT7HGM7R_kZCo5PE-18" value="" style="rounded=0;whiteSpace=wrap;html=1;dashed=1;" vertex="1" parent="VP1vcT7HGM7R_kZCo5PE-1">
          <mxGeometry x="470" y="170" width="120" height="170" as="geometry" />
        </mxCell>
        <mxCell id="VP1vcT7HGM7R_kZCo5PE-19" value="&lt;font style=&quot;font-size: 15px&quot;&gt;普惠&lt;/font&gt;" style="text;html=1;strokeColor=none;fillColor=none;align=center;verticalAlign=middle;whiteSpace=wrap;rounded=0;dashed=1;" vertex="1" parent="VP1vcT7HGM7R_kZCo5PE-1">
          <mxGeometry x="510" y="170" width="40" height="20" as="geometry" />
        </mxCell>
        <mxCell id="VP1vcT7HGM7R_kZCo5PE-20" value="销售系统" style="rounded=0;whiteSpace=wrap;html=1;" vertex="1" parent="VP1vcT7HGM7R_kZCo5PE-1">
          <mxGeometry x="485" y="200" width="90" height="30" as="geometry" />
        </mxCell>
        <mxCell id="VP1vcT7HGM7R_kZCo5PE-21" value="片区管理" style="rounded=0;whiteSpace=wrap;html=1;" vertex="1" parent="VP1vcT7HGM7R_kZCo5PE-1">
          <mxGeometry x="485" y="250" width="90" height="30" as="geometry" />
        </mxCell>
        <mxCell id="VP1vcT7HGM7R_kZCo5PE-22" value="人员管理" style="rounded=0;whiteSpace=wrap;html=1;" vertex="1" parent="VP1vcT7HGM7R_kZCo5PE-1">
          <mxGeometry x="485" y="300" width="90" height="30" as="geometry" />
        </mxCell>
        <mxCell id="VP1vcT7HGM7R_kZCo5PE-23" value="" style="rounded=0;whiteSpace=wrap;html=1;dashed=1;" vertex="1" parent="VP1vcT7HGM7R_kZCo5PE-1">
          <mxGeometry x="660" y="170" width="120" height="170" as="geometry" />
        </mxCell>
        <mxCell id="VP1vcT7HGM7R_kZCo5PE-24" value="&lt;font style=&quot;font-size: 15px&quot;&gt;现金&lt;/font&gt;" style="text;html=1;strokeColor=none;fillColor=none;align=center;verticalAlign=middle;whiteSpace=wrap;rounded=0;dashed=1;" vertex="1" parent="VP1vcT7HGM7R_kZCo5PE-1">
          <mxGeometry x="700" y="170" width="40" height="20" as="geometry" />
        </mxCell>
        <mxCell id="VP1vcT7HGM7R_kZCo5PE-25" value="乐花借钱" style="rounded=0;whiteSpace=wrap;html=1;" vertex="1" parent="VP1vcT7HGM7R_kZCo5PE-1">
          <mxGeometry x="675" y="200" width="90" height="30" as="geometry" />
        </mxCell>
        <mxCell id="VP1vcT7HGM7R_kZCo5PE-26" value="随借随还" style="rounded=0;whiteSpace=wrap;html=1;" vertex="1" parent="VP1vcT7HGM7R_kZCo5PE-1">
          <mxGeometry x="675" y="250" width="90" height="30" as="geometry" />
        </mxCell>
        <mxCell id="VP1vcT7HGM7R_kZCo5PE-27" value="先息后本" style="rounded=0;whiteSpace=wrap;html=1;" vertex="1" parent="VP1vcT7HGM7R_kZCo5PE-1">
          <mxGeometry x="675" y="300" width="90" height="30" as="geometry" />
        </mxCell>
        <mxCell id="VP1vcT7HGM7R_kZCo5PE-28" value="" style="rounded=0;whiteSpace=wrap;html=1;dashed=1;" vertex="1" parent="VP1vcT7HGM7R_kZCo5PE-1">
          <mxGeometry x="856" y="170" width="120" height="170" as="geometry" />
        </mxCell>
        <mxCell id="VP1vcT7HGM7R_kZCo5PE-29" value="&lt;font style=&quot;font-size: 15px&quot;&gt;乐花卡&lt;/font&gt;" style="text;html=1;strokeColor=none;fillColor=none;align=center;verticalAlign=middle;whiteSpace=wrap;rounded=0;dashed=1;" vertex="1" parent="VP1vcT7HGM7R_kZCo5PE-1">
          <mxGeometry x="886" y="170" width="50" height="20" as="geometry" />
        </mxCell>
        <mxCell id="VP1vcT7HGM7R_kZCo5PE-30" value="开二类户" style="rounded=0;whiteSpace=wrap;html=1;" vertex="1" parent="VP1vcT7HGM7R_kZCo5PE-1">
          <mxGeometry x="871" y="200" width="90" height="30" as="geometry" />
        </mxCell>
        <mxCell id="VP1vcT7HGM7R_kZCo5PE-31" value="授信" style="rounded=0;whiteSpace=wrap;html=1;" vertex="1" parent="VP1vcT7HGM7R_kZCo5PE-1">
          <mxGeometry x="871" y="250" width="90" height="30" as="geometry" />
        </mxCell>
        <mxCell id="VP1vcT7HGM7R_kZCo5PE-32" value="交易" style="rounded=0;whiteSpace=wrap;html=1;" vertex="1" parent="VP1vcT7HGM7R_kZCo5PE-1">
          <mxGeometry x="871" y="300" width="90" height="30" as="geometry" />
        </mxCell>
        <mxCell id="VP1vcT7HGM7R_kZCo5PE-33" value="" style="rounded=0;whiteSpace=wrap;html=1;dashed=1;" vertex="1" parent="VP1vcT7HGM7R_kZCo5PE-1">
          <mxGeometry x="1040" y="170" width="210" height="170" as="geometry" />
        </mxCell>
        <mxCell id="VP1vcT7HGM7R_kZCo5PE-34" value="会员体系" style="rounded=0;whiteSpace=wrap;html=1;" vertex="1" parent="VP1vcT7HGM7R_kZCo5PE-1">
          <mxGeometry x="1050" y="190" width="90" height="30" as="geometry" />
        </mxCell>
        <mxCell id="VP1vcT7HGM7R_kZCo5PE-35" value="权益进销存" style="rounded=0;whiteSpace=wrap;html=1;" vertex="1" parent="VP1vcT7HGM7R_kZCo5PE-1">
          <mxGeometry x="1150" y="190" width="90" height="30" as="geometry" />
        </mxCell>
        <mxCell id="VP1vcT7HGM7R_kZCo5PE-36" value="&lt;font style=&quot;font-size: 15px&quot;&gt;乐卡&lt;/font&gt;" style="text;html=1;strokeColor=none;fillColor=none;align=center;verticalAlign=middle;whiteSpace=wrap;rounded=0;" vertex="1" parent="VP1vcT7HGM7R_kZCo5PE-1">
          <mxGeometry x="1125" y="170" width="40" height="20" as="geometry" />
        </mxCell>
        <mxCell id="VP1vcT7HGM7R_kZCo5PE-37" value="权益商户" style="rounded=0;whiteSpace=wrap;html=1;" vertex="1" parent="VP1vcT7HGM7R_kZCo5PE-1">
          <mxGeometry x="1050" y="230" width="90" height="30" as="geometry" />
        </mxCell>
        <mxCell id="VP1vcT7HGM7R_kZCo5PE-38" value="运营支持" style="rounded=0;whiteSpace=wrap;html=1;" vertex="1" parent="VP1vcT7HGM7R_kZCo5PE-1">
          <mxGeometry x="1050" y="270" width="90" height="30" as="geometry" />
        </mxCell>
        <mxCell id="VP1vcT7HGM7R_kZCo5PE-39" value="会员电商" style="rounded=0;whiteSpace=wrap;html=1;" vertex="1" parent="VP1vcT7HGM7R_kZCo5PE-1">
          <mxGeometry x="1150" y="230" width="90" height="30" as="geometry" />
        </mxCell>
        <mxCell id="VP1vcT7HGM7R_kZCo5PE-40" value="BD支撑" style="rounded=0;whiteSpace=wrap;html=1;" vertex="1" parent="VP1vcT7HGM7R_kZCo5PE-1">
          <mxGeometry x="1150" y="270" width="90" height="30" as="geometry" />
        </mxCell>
        <mxCell id="VP1vcT7HGM7R_kZCo5PE-41" value="" style="rounded=0;whiteSpace=wrap;html=1;dashed=1;" vertex="1" parent="VP1vcT7HGM7R_kZCo5PE-1">
          <mxGeometry x="1310" y="170" width="210" height="170" as="geometry" />
        </mxCell>
        <mxCell id="VP1vcT7HGM7R_kZCo5PE-42" value="商详" style="rounded=0;whiteSpace=wrap;html=1;" vertex="1" parent="VP1vcT7HGM7R_kZCo5PE-1">
          <mxGeometry x="1320" y="200" width="90" height="30" as="geometry" />
        </mxCell>
        <mxCell id="VP1vcT7HGM7R_kZCo5PE-43" value="选购" style="rounded=0;whiteSpace=wrap;html=1;" vertex="1" parent="VP1vcT7HGM7R_kZCo5PE-1">
          <mxGeometry x="1420" y="200" width="90" height="30" as="geometry" />
        </mxCell>
        <mxCell id="VP1vcT7HGM7R_kZCo5PE-44" value="&lt;font style=&quot;font-size: 15px&quot;&gt;电商&lt;/font&gt;" style="text;html=1;strokeColor=none;fillColor=none;align=center;verticalAlign=middle;whiteSpace=wrap;rounded=0;" vertex="1" parent="VP1vcT7HGM7R_kZCo5PE-1">
          <mxGeometry x="1395" y="170" width="40" height="20" as="geometry" />
        </mxCell>
        <mxCell id="VP1vcT7HGM7R_kZCo5PE-45" value="购物车" style="rounded=0;whiteSpace=wrap;html=1;" vertex="1" parent="VP1vcT7HGM7R_kZCo5PE-1">
          <mxGeometry x="1320" y="250" width="90" height="30" as="geometry" />
        </mxCell>
        <mxCell id="VP1vcT7HGM7R_kZCo5PE-46" value="收银台" style="rounded=0;whiteSpace=wrap;html=1;" vertex="1" parent="VP1vcT7HGM7R_kZCo5PE-1">
          <mxGeometry x="1320" y="300" width="90" height="30" as="geometry" />
        </mxCell>
        <mxCell id="VP1vcT7HGM7R_kZCo5PE-47" value="下单页 " style="rounded=0;whiteSpace=wrap;html=1;" vertex="1" parent="VP1vcT7HGM7R_kZCo5PE-1">
          <mxGeometry x="1420" y="250" width="90" height="30" as="geometry" />
        </mxCell>
        <mxCell id="VP1vcT7HGM7R_kZCo5PE-48" value="搜索页" style="rounded=0;whiteSpace=wrap;html=1;" vertex="1" parent="VP1vcT7HGM7R_kZCo5PE-1">
          <mxGeometry x="1420" y="300" width="90" height="30" as="geometry" />
        </mxCell>
        <mxCell id="VP1vcT7HGM7R_kZCo5PE-49" value="" style="rounded=0;whiteSpace=wrap;html=1;dashed=1;" vertex="1" parent="VP1vcT7HGM7R_kZCo5PE-1">
          <mxGeometry x="1570" y="170" width="120" height="170" as="geometry" />
        </mxCell>
        <mxCell id="VP1vcT7HGM7R_kZCo5PE-50" value="&lt;font style=&quot;font-size: 15px&quot;&gt;鼎盛&lt;/font&gt;" style="text;html=1;strokeColor=none;fillColor=none;align=center;verticalAlign=middle;whiteSpace=wrap;rounded=0;dashed=1;" vertex="1" parent="VP1vcT7HGM7R_kZCo5PE-1">
          <mxGeometry x="1600" y="170" width="50" height="20" as="geometry" />
        </mxCell>
        <mxCell id="VP1vcT7HGM7R_kZCo5PE-51" value="资金接入" style="rounded=0;whiteSpace=wrap;html=1;" vertex="1" parent="VP1vcT7HGM7R_kZCo5PE-1">
          <mxGeometry x="1585" y="200" width="90" height="30" as="geometry" />
        </mxCell>
        <mxCell id="VP1vcT7HGM7R_kZCo5PE-52" value="渠道运营" style="rounded=0;whiteSpace=wrap;html=1;" vertex="1" parent="VP1vcT7HGM7R_kZCo5PE-1">
          <mxGeometry x="1585" y="250" width="90" height="30" as="geometry" />
        </mxCell>
        <mxCell id="VP1vcT7HGM7R_kZCo5PE-53" value="征信合并上报" style="rounded=0;whiteSpace=wrap;html=1;" vertex="1" parent="VP1vcT7HGM7R_kZCo5PE-1">
          <mxGeometry x="1585" y="300" width="90" height="30" as="geometry" />
        </mxCell>
        <mxCell id="VP1vcT7HGM7R_kZCo5PE-54" value="" style="rounded=0;whiteSpace=wrap;html=1;dashed=1;" vertex="1" parent="VP1vcT7HGM7R_kZCo5PE-1">
          <mxGeometry x="1730" y="170" width="120" height="170" as="geometry" />
        </mxCell>
        <mxCell id="VP1vcT7HGM7R_kZCo5PE-55" value="&lt;font style=&quot;font-size: 15px&quot;&gt;乐信财富&lt;/font&gt;" style="text;html=1;strokeColor=none;fillColor=none;align=center;verticalAlign=middle;whiteSpace=wrap;rounded=0;dashed=1;" vertex="1" parent="VP1vcT7HGM7R_kZCo5PE-1">
          <mxGeometry x="1755" y="170" width="70" height="20" as="geometry" />
        </mxCell>
        <mxCell id="VP1vcT7HGM7R_kZCo5PE-56" value="财富管理" style="rounded=0;whiteSpace=wrap;html=1;" vertex="1" parent="VP1vcT7HGM7R_kZCo5PE-1">
          <mxGeometry x="1745" y="200" width="90" height="30" as="geometry" />
        </mxCell>
        <mxCell id="VP1vcT7HGM7R_kZCo5PE-57" value="银行存款" style="rounded=0;whiteSpace=wrap;html=1;" vertex="1" parent="VP1vcT7HGM7R_kZCo5PE-1">
          <mxGeometry x="1745" y="250" width="90" height="30" as="geometry" />
        </mxCell>
        <mxCell id="VP1vcT7HGM7R_kZCo5PE-59" value="商户清结算" style="rounded=0;whiteSpace=wrap;html=1;" vertex="1" parent="VP1vcT7HGM7R_kZCo5PE-1">
          <mxGeometry x="1050" y="310" width="90" height="30" as="geometry" />
        </mxCell>
        <mxCell id="VP1vcT7HGM7R_kZCo5PE-61" value="" style="rounded=0;whiteSpace=wrap;html=1;dashed=1;" vertex="1" parent="VP1vcT7HGM7R_kZCo5PE-1">
          <mxGeometry x="200" y="370" width="1650" height="140" as="geometry" />
        </mxCell>
        <mxCell id="VP1vcT7HGM7R_kZCo5PE-62" value="" style="rounded=0;whiteSpace=wrap;html=1;dashed=1;" vertex="1" parent="VP1vcT7HGM7R_kZCo5PE-1">
          <mxGeometry x="214" y="397.5" width="400" height="85" as="geometry" />
        </mxCell>
        <mxCell id="VP1vcT7HGM7R_kZCo5PE-63" value="凌图" style="rounded=0;whiteSpace=wrap;html=1;" vertex="1" parent="VP1vcT7HGM7R_kZCo5PE-1">
          <mxGeometry x="220" y="430" width="90" height="30" as="geometry" />
        </mxCell>
        <mxCell id="VP1vcT7HGM7R_kZCo5PE-64" value="授信流程" style="rounded=0;whiteSpace=wrap;html=1;" vertex="1" parent="VP1vcT7HGM7R_kZCo5PE-1">
          <mxGeometry x="320" y="430" width="90" height="30" as="geometry" />
        </mxCell>
        <mxCell id="VP1vcT7HGM7R_kZCo5PE-65" value="&lt;div&gt;分期支付&lt;/div&gt;&lt;div&gt;开放平台&lt;/div&gt;" style="rounded=0;whiteSpace=wrap;html=1;" vertex="1" parent="VP1vcT7HGM7R_kZCo5PE-1">
          <mxGeometry x="414" y="430" width="90" height="30" as="geometry" />
        </mxCell>
        <mxCell id="VP1vcT7HGM7R_kZCo5PE-66" value="投放平台" style="rounded=0;whiteSpace=wrap;html=1;" vertex="1" parent="VP1vcT7HGM7R_kZCo5PE-1">
          <mxGeometry x="510" y="430" width="90" height="30" as="geometry" />
        </mxCell>
        <mxCell id="VP1vcT7HGM7R_kZCo5PE-67" value="&lt;font style=&quot;font-size: 13px&quot;&gt;获客能力&lt;/font&gt;" style="text;html=1;strokeColor=none;fillColor=none;align=center;verticalAlign=middle;whiteSpace=wrap;rounded=0;dashed=1;" vertex="1" parent="VP1vcT7HGM7R_kZCo5PE-1">
          <mxGeometry x="380" y="398" width="60" height="20" as="geometry" />
        </mxCell>
        <mxCell id="VP1vcT7HGM7R_kZCo5PE-69" value="凌图" style="rounded=0;whiteSpace=wrap;html=1;" vertex="1" parent="VP1vcT7HGM7R_kZCo5PE-1">
          <mxGeometry x="646" y="430" width="90" height="30" as="geometry" />
        </mxCell>
        <mxCell id="VP1vcT7HGM7R_kZCo5PE-70" value="授信流程" style="rounded=0;whiteSpace=wrap;html=1;" vertex="1" parent="VP1vcT7HGM7R_kZCo5PE-1">
          <mxGeometry x="746" y="430" width="90" height="30" as="geometry" />
        </mxCell>
        <mxCell id="VP1vcT7HGM7R_kZCo5PE-73" value="&lt;font style=&quot;font-size: 13px&quot;&gt;获客能力&lt;/font&gt;" style="text;html=1;strokeColor=none;fillColor=none;align=center;verticalAlign=middle;whiteSpace=wrap;rounded=0;dashed=1;" vertex="1" parent="VP1vcT7HGM7R_kZCo5PE-1">
          <mxGeometry x="806" y="398" width="60" height="20" as="geometry" />
        </mxCell>
        <mxCell id="VP1vcT7HGM7R_kZCo5PE-74" value="" style="rounded=0;whiteSpace=wrap;html=1;dashed=1;" vertex="1" parent="VP1vcT7HGM7R_kZCo5PE-1">
          <mxGeometry x="640" y="397.5" width="220" height="85" as="geometry" />
        </mxCell>
        <mxCell id="VP1vcT7HGM7R_kZCo5PE-75" value="现金API" style="rounded=0;whiteSpace=wrap;html=1;" vertex="1" parent="VP1vcT7HGM7R_kZCo5PE-1">
          <mxGeometry x="646" y="418.5" width="204" height="22" as="geometry" />
        </mxCell>
        <mxCell id="VP1vcT7HGM7R_kZCo5PE-76" value="还款流程" style="rounded=0;whiteSpace=wrap;html=1;" vertex="1" parent="VP1vcT7HGM7R_kZCo5PE-1">
          <mxGeometry x="646" y="448" width="90" height="22" as="geometry" />
        </mxCell>
        <mxCell id="VP1vcT7HGM7R_kZCo5PE-79" value="&lt;font style=&quot;font-size: 13px&quot;&gt;借还能力&lt;/font&gt;" style="text;html=1;strokeColor=none;fillColor=none;align=center;verticalAlign=middle;whiteSpace=wrap;rounded=0;dashed=1;" vertex="1" parent="VP1vcT7HGM7R_kZCo5PE-1">
          <mxGeometry x="710" y="398" width="60" height="20" as="geometry" />
        </mxCell>
        <mxCell id="VP1vcT7HGM7R_kZCo5PE-80" value="" style="rounded=0;whiteSpace=wrap;html=1;dashed=1;" vertex="1" parent="VP1vcT7HGM7R_kZCo5PE-1">
          <mxGeometry x="880" y="398" width="400" height="85" as="geometry" />
        </mxCell>
        <mxCell id="VP1vcT7HGM7R_kZCo5PE-81" value="&lt;div&gt;事件管理&lt;/div&gt;&lt;div&gt;（用户运营）&lt;/div&gt;" style="rounded=0;whiteSpace=wrap;html=1;" vertex="1" parent="VP1vcT7HGM7R_kZCo5PE-1">
          <mxGeometry x="886" y="418" width="90" height="30" as="geometry" />
        </mxCell>
        <mxCell id="VP1vcT7HGM7R_kZCo5PE-82" value="&lt;div&gt;任务管理&lt;/div&gt;&lt;div&gt;（用户运营）&lt;/div&gt;" style="rounded=0;whiteSpace=wrap;html=1;" vertex="1" parent="VP1vcT7HGM7R_kZCo5PE-1">
          <mxGeometry x="1040" y="419" width="84" height="30" as="geometry" />
        </mxCell>
        <mxCell id="VP1vcT7HGM7R_kZCo5PE-83" value="优惠券" style="rounded=0;whiteSpace=wrap;html=1;" vertex="1" parent="VP1vcT7HGM7R_kZCo5PE-1">
          <mxGeometry x="1176" y="418" width="90" height="29.5" as="geometry" />
        </mxCell>
        <mxCell id="VP1vcT7HGM7R_kZCo5PE-85" value="&lt;font style=&quot;font-size: 13px&quot;&gt;用户运营能力&lt;/font&gt;" style="text;html=1;strokeColor=none;fillColor=none;align=center;verticalAlign=middle;whiteSpace=wrap;rounded=0;dashed=1;" vertex="1" parent="VP1vcT7HGM7R_kZCo5PE-1">
          <mxGeometry x="1046" y="398.5" width="84" height="20" as="geometry" />
        </mxCell>
        <mxCell id="VP1vcT7HGM7R_kZCo5PE-86" value="账单管理" style="rounded=0;whiteSpace=wrap;html=1;" vertex="1" parent="VP1vcT7HGM7R_kZCo5PE-1">
          <mxGeometry x="760" y="448" width="90" height="22" as="geometry" />
        </mxCell>
        <mxCell id="VP1vcT7HGM7R_kZCo5PE-87" value="" style="rounded=0;whiteSpace=wrap;html=1;dashed=1;" vertex="1" parent="VP1vcT7HGM7R_kZCo5PE-1">
          <mxGeometry x="1290" y="398.5" width="400" height="85" as="geometry" />
        </mxCell>
        <mxCell id="VP1vcT7HGM7R_kZCo5PE-88" value="凌图" style="rounded=0;whiteSpace=wrap;html=1;" vertex="1" parent="VP1vcT7HGM7R_kZCo5PE-1">
          <mxGeometry x="1296" y="431" width="90" height="30" as="geometry" />
        </mxCell>
        <mxCell id="VP1vcT7HGM7R_kZCo5PE-89" value="授信流程" style="rounded=0;whiteSpace=wrap;html=1;" vertex="1" parent="VP1vcT7HGM7R_kZCo5PE-1">
          <mxGeometry x="1396" y="431" width="84" height="30" as="geometry" />
        </mxCell>
        <mxCell id="VP1vcT7HGM7R_kZCo5PE-90" value="&lt;div&gt;分期支付&lt;/div&gt;&lt;div&gt;开放平台&lt;/div&gt;" style="rounded=0;whiteSpace=wrap;html=1;" vertex="1" parent="VP1vcT7HGM7R_kZCo5PE-1">
          <mxGeometry x="1490" y="431" width="90" height="29" as="geometry" />
        </mxCell>
        <mxCell id="VP1vcT7HGM7R_kZCo5PE-91" value="投放平台" style="rounded=0;whiteSpace=wrap;html=1;" vertex="1" parent="VP1vcT7HGM7R_kZCo5PE-1">
          <mxGeometry x="1586" y="431" width="90" height="30" as="geometry" />
        </mxCell>
        <mxCell id="VP1vcT7HGM7R_kZCo5PE-92" value="&lt;font style=&quot;font-size: 13px&quot;&gt;电商能力&lt;/font&gt;" style="text;html=1;strokeColor=none;fillColor=none;align=center;verticalAlign=middle;whiteSpace=wrap;rounded=0;dashed=1;" vertex="1" parent="VP1vcT7HGM7R_kZCo5PE-1">
          <mxGeometry x="1456" y="399" width="60" height="20" as="geometry" />
        </mxCell>
        <mxCell id="VP1vcT7HGM7R_kZCo5PE-93" value="APP产品管理" style="rounded=0;whiteSpace=wrap;html=1;" vertex="1" parent="VP1vcT7HGM7R_kZCo5PE-1">
          <mxGeometry x="1730" y="401" width="90" height="30" as="geometry" />
        </mxCell>
        <mxCell id="VP1vcT7HGM7R_kZCo5PE-94" value="统跳" style="rounded=0;whiteSpace=wrap;html=1;" vertex="1" parent="VP1vcT7HGM7R_kZCo5PE-1">
          <mxGeometry x="1730" y="448" width="90" height="30" as="geometry" />
        </mxCell>
        <mxCell id="VP1vcT7HGM7R_kZCo5PE-95" value="活动发布" style="rounded=0;whiteSpace=wrap;html=1;" vertex="1" parent="VP1vcT7HGM7R_kZCo5PE-1">
          <mxGeometry x="886" y="452.5" width="90" height="30" as="geometry" />
        </mxCell>
        <mxCell id="VP1vcT7HGM7R_kZCo5PE-96" value="规则系统" style="rounded=0;whiteSpace=wrap;html=1;" vertex="1" parent="VP1vcT7HGM7R_kZCo5PE-1">
          <mxGeometry x="983" y="453.5" width="90" height="30" as="geometry" />
        </mxCell>
        <mxCell id="VP1vcT7HGM7R_kZCo5PE-97" value="乐高推送" style="rounded=0;whiteSpace=wrap;html=1;" vertex="1" parent="VP1vcT7HGM7R_kZCo5PE-1">
          <mxGeometry x="1080" y="453.5" width="90" height="30" as="geometry" />
        </mxCell>
        <mxCell id="VP1vcT7HGM7R_kZCo5PE-98" value="乐星" style="rounded=0;whiteSpace=wrap;html=1;" vertex="1" parent="VP1vcT7HGM7R_kZCo5PE-1">
          <mxGeometry x="1176" y="453.5" width="90" height="30" as="geometry" />
        </mxCell>
      </root>
    </mxGraphModel>
  </diagram>
</mxfile>
